<mxfile host="app.diagrams.net" agent="Mozilla/5.0 (Macintosh; Intel Mac OS X 10_15_7) AppleWebKit/537.36 (KHTML, like Gecko) Chrome/131.0.0.0 Safari/537.36" version="25.0.3">
  <diagram name="第 1 页" id="VuZ4HeaCu-ZnlVej3YWM">
    <mxGraphModel dx="2074" dy="1045" grid="1" gridSize="10" guides="1" tooltips="1" connect="1" arrows="1" fold="1" page="1" pageScale="1" pageWidth="827" pageHeight="1169" math="0" shadow="0">
      <root>
        <mxCell id="0" />
        <mxCell id="1" parent="0" />
        <mxCell id="b6jJAoVoaWnXoVeAViK6-1" value="" style="endArrow=none;html=1;rounded=0;sketch=1;hachureGap=4;jiggle=2;curveFitting=1;fontFamily=Architects Daughter;fontSource=https%3A%2F%2Ffonts.googleapis.com%2Fcss%3Ffamily%3DArchitects%2BDaughter;" edge="1" parent="1">
          <mxGeometry width="50" height="50" relative="1" as="geometry">
            <mxPoint x="80" y="120" as="sourcePoint" />
            <mxPoint x="760" y="120" as="targetPoint" />
          </mxGeometry>
        </mxCell>
        <mxCell id="b6jJAoVoaWnXoVeAViK6-2" value="" style="endArrow=none;html=1;rounded=0;sketch=1;hachureGap=4;jiggle=2;curveFitting=1;fontFamily=Architects Daughter;fontSource=https%3A%2F%2Ffonts.googleapis.com%2Fcss%3Ffamily%3DArchitects%2BDaughter;" edge="1" parent="1">
          <mxGeometry width="50" height="50" relative="1" as="geometry">
            <mxPoint x="80" y="120" as="sourcePoint" />
            <mxPoint x="80" y="1040" as="targetPoint" />
          </mxGeometry>
        </mxCell>
        <mxCell id="b6jJAoVoaWnXoVeAViK6-3" value="" style="endArrow=none;html=1;rounded=0;sketch=1;hachureGap=4;jiggle=2;curveFitting=1;fontFamily=Architects Daughter;fontSource=https%3A%2F%2Ffonts.googleapis.com%2Fcss%3Ffamily%3DArchitects%2BDaughter;" edge="1" parent="1">
          <mxGeometry width="50" height="50" relative="1" as="geometry">
            <mxPoint x="760" y="120" as="sourcePoint" />
            <mxPoint x="760" y="1040" as="targetPoint" />
          </mxGeometry>
        </mxCell>
        <mxCell id="b6jJAoVoaWnXoVeAViK6-4" value="" style="endArrow=none;html=1;rounded=0;sketch=1;hachureGap=4;jiggle=2;curveFitting=1;fontFamily=Architects Daughter;fontSource=https%3A%2F%2Ffonts.googleapis.com%2Fcss%3Ffamily%3DArchitects%2BDaughter;" edge="1" parent="1">
          <mxGeometry width="50" height="50" relative="1" as="geometry">
            <mxPoint x="80" y="1040" as="sourcePoint" />
            <mxPoint x="760" y="1040" as="targetPoint" />
          </mxGeometry>
        </mxCell>
        <mxCell id="b6jJAoVoaWnXoVeAViK6-5" value="什么是Kubernetes(K8S)" style="text;html=1;align=center;verticalAlign=middle;resizable=0;points=[];autosize=1;strokeColor=none;fillColor=none;fontFamily=Helvetica;" vertex="1" parent="1">
          <mxGeometry x="339" y="60" width="150" height="30" as="geometry" />
        </mxCell>
        <mxCell id="b6jJAoVoaWnXoVeAViK6-17" style="edgeStyle=orthogonalEdgeStyle;rounded=0;hachureGap=4;orthogonalLoop=1;jettySize=auto;html=1;exitX=0.5;exitY=1;exitDx=0;exitDy=0;fontFamily=Architects Daughter;fontSource=https%3A%2F%2Ffonts.googleapis.com%2Fcss%3Ffamily%3DArchitects%2BDaughter;flowAnimation=1;" edge="1" parent="1" source="b6jJAoVoaWnXoVeAViK6-6">
          <mxGeometry relative="1" as="geometry">
            <mxPoint x="414" y="290" as="targetPoint" />
          </mxGeometry>
        </mxCell>
        <mxCell id="b6jJAoVoaWnXoVeAViK6-6" value="" style="rounded=0;whiteSpace=wrap;html=1;hachureGap=4;fontFamily=Architects Daughter;fontSource=https%3A%2F%2Ffonts.googleapis.com%2Fcss%3Ffamily%3DArchitects%2BDaughter;textShadow=1;shadow=0;dashed=1;fillColor=#d5e8d4;strokeColor=#82b366;" vertex="1" parent="1">
          <mxGeometry x="251" y="130" width="326" height="120" as="geometry" />
        </mxCell>
        <mxCell id="b6jJAoVoaWnXoVeAViK6-7" value="" style="rounded=0;whiteSpace=wrap;html=1;hachureGap=4;fontFamily=Architects Daughter;fontSource=https%3A%2F%2Ffonts.googleapis.com%2Fcss%3Ffamily%3DArchitects%2BDaughter;textShadow=1;shadow=0;dashed=1;fillColor=#ffcccc;strokeColor=#36393d;" vertex="1" parent="1">
          <mxGeometry x="184" y="300" width="460" height="260" as="geometry" />
        </mxCell>
        <mxCell id="b6jJAoVoaWnXoVeAViK6-8" value="" style="rounded=0;whiteSpace=wrap;html=1;hachureGap=4;fontFamily=Architects Daughter;fontSource=https%3A%2F%2Ffonts.googleapis.com%2Fcss%3Ffamily%3DArchitects%2BDaughter;textShadow=1;shadow=0;dashed=1;fillColor=#fff2cc;strokeColor=#d6b656;" vertex="1" parent="1">
          <mxGeometry x="110" y="600" width="300" height="420" as="geometry" />
        </mxCell>
        <mxCell id="b6jJAoVoaWnXoVeAViK6-13" value="" style="image;aspect=fixed;perimeter=ellipsePerimeter;html=1;align=center;shadow=0;dashed=0;spacingTop=3;image=img/lib/active_directory/home_page.svg;sketch=1;hachureGap=4;jiggle=2;curveFitting=1;fontFamily=Architects Daughter;fontSource=https%3A%2F%2Ffonts.googleapis.com%2Fcss%3Ffamily%3DArchitects%2BDaughter;" vertex="1" parent="1">
          <mxGeometry x="300" y="150" width="66.67" height="60" as="geometry" />
        </mxCell>
        <mxCell id="b6jJAoVoaWnXoVeAViK6-14" value="&lt;font face=&quot;Helvetica&quot;&gt;管理用户界面&lt;/font&gt;" style="text;html=1;align=center;verticalAlign=middle;resizable=0;points=[];autosize=1;strokeColor=none;fillColor=none;fontFamily=Architects Daughter;fontSource=https%3A%2F%2Ffonts.googleapis.com%2Fcss%3Ffamily%3DArchitects%2BDaughter;" vertex="1" parent="1">
          <mxGeometry x="283.33" y="210" width="100" height="30" as="geometry" />
        </mxCell>
        <mxCell id="b6jJAoVoaWnXoVeAViK6-15" value="" style="image;aspect=fixed;html=1;points=[];align=center;fontSize=12;image=img/lib/azure2/devops/Code_Optimization.svg;sketch=1;hachureGap=4;jiggle=2;curveFitting=1;fontFamily=Architects Daughter;fontSource=https%3A%2F%2Ffonts.googleapis.com%2Fcss%3Ffamily%3DArchitects%2BDaughter;" vertex="1" parent="1">
          <mxGeometry x="464" y="146" width="68" height="68" as="geometry" />
        </mxCell>
        <mxCell id="b6jJAoVoaWnXoVeAViK6-16" value="&lt;font face=&quot;Helvetica&quot;&gt;命令行界面&lt;/font&gt;" style="text;html=1;align=center;verticalAlign=middle;resizable=0;points=[];autosize=1;strokeColor=none;fillColor=none;fontFamily=Architects Daughter;fontSource=https%3A%2F%2Ffonts.googleapis.com%2Fcss%3Ffamily%3DArchitects%2BDaughter;" vertex="1" parent="1">
          <mxGeometry x="458" y="210" width="80" height="30" as="geometry" />
        </mxCell>
        <mxCell id="b6jJAoVoaWnXoVeAViK6-20" value="&lt;font face=&quot;Helvetica&quot; style=&quot;font-size: 21px;&quot;&gt;&lt;b&gt;控制面板&lt;/b&gt;&lt;/font&gt;" style="rounded=0;whiteSpace=wrap;html=1;sketch=1;hachureGap=4;jiggle=2;curveFitting=1;fontFamily=Architects Daughter;fontSource=https%3A%2F%2Ffonts.googleapis.com%2Fcss%3Ffamily%3DArchitects%2BDaughter;fillColor=#e6d0de;strokeColor=#996185;gradientColor=#d5739d;" vertex="1" parent="1">
          <mxGeometry x="188" y="300" width="456" height="70" as="geometry" />
        </mxCell>
        <mxCell id="b6jJAoVoaWnXoVeAViK6-24" value="" style="rounded=0;whiteSpace=wrap;html=1;hachureGap=4;fontFamily=Architects Daughter;fontSource=https%3A%2F%2Ffonts.googleapis.com%2Fcss%3Ffamily%3DArchitects%2BDaughter;dashed=1;fillColor=#eeeeee;strokeColor=#36393d;" vertex="1" parent="1">
          <mxGeometry x="200" y="380" width="120" height="70" as="geometry" />
        </mxCell>
        <mxCell id="b6jJAoVoaWnXoVeAViK6-25" value="" style="rounded=0;whiteSpace=wrap;html=1;hachureGap=4;fontFamily=Architects Daughter;fontSource=https%3A%2F%2Ffonts.googleapis.com%2Fcss%3Ffamily%3DArchitects%2BDaughter;dashed=1;fillColor=#eeeeee;strokeColor=#36393d;" vertex="1" parent="1">
          <mxGeometry x="354" y="380" width="120" height="70" as="geometry" />
        </mxCell>
        <mxCell id="b6jJAoVoaWnXoVeAViK6-26" value="" style="rounded=0;whiteSpace=wrap;html=1;hachureGap=4;fontFamily=Architects Daughter;fontSource=https%3A%2F%2Ffonts.googleapis.com%2Fcss%3Ffamily%3DArchitects%2BDaughter;dashed=1;fillColor=#eeeeee;strokeColor=#36393d;" vertex="1" parent="1">
          <mxGeometry x="510" y="380" width="120" height="70" as="geometry" />
        </mxCell>
        <mxCell id="b6jJAoVoaWnXoVeAViK6-27" value="" style="image;sketch=0;aspect=fixed;html=1;points=[];align=center;fontSize=12;image=img/lib/mscae/App_Configuration.svg;hachureGap=4;jiggle=2;curveFitting=1;fontFamily=Architects Daughter;fontSource=https%3A%2F%2Ffonts.googleapis.com%2Fcss%3Ffamily%3DArchitects%2BDaughter;" vertex="1" parent="1">
          <mxGeometry x="242.51" y="390" width="40.82" height="40" as="geometry" />
        </mxCell>
        <mxCell id="b6jJAoVoaWnXoVeAViK6-28" value="" style="fillColor=#28A8E0;verticalLabelPosition=bottom;sketch=0;html=1;strokeColor=#ffffff;verticalAlign=top;align=center;points=[[0.145,0.145,0],[0.5,0,0],[0.855,0.145,0],[1,0.5,0],[0.855,0.855,0],[0.5,1,0],[0.145,0.855,0],[0,0.5,0]];pointerEvents=1;shape=mxgraph.cisco_safe.compositeIcon;bgIcon=ellipse;resIcon=mxgraph.cisco_safe.capability.time_synchronization;hachureGap=4;jiggle=2;curveFitting=1;fontFamily=Architects Daughter;fontSource=https%3A%2F%2Ffonts.googleapis.com%2Fcss%3Ffamily%3DArchitects%2BDaughter;" vertex="1" parent="1">
          <mxGeometry x="394.5" y="390" width="43" height="43" as="geometry" />
        </mxCell>
        <mxCell id="b6jJAoVoaWnXoVeAViK6-29" value="" style="strokeWidth=2;html=1;shape=mxgraph.flowchart.database;whiteSpace=wrap;hachureGap=4;fontFamily=Architects Daughter;fontSource=https%3A%2F%2Ffonts.googleapis.com%2Fcss%3Ffamily%3DArchitects%2BDaughter;" vertex="1" parent="1">
          <mxGeometry x="555" y="390" width="40" height="40" as="geometry" />
        </mxCell>
        <mxCell id="b6jJAoVoaWnXoVeAViK6-30" value="控制管理器" style="text;html=1;align=center;verticalAlign=middle;resizable=0;points=[];autosize=1;strokeColor=none;fillColor=none;fontFamily=Architects Daughter;fontSource=https%3A%2F%2Ffonts.googleapis.com%2Fcss%3Ffamily%3DArchitects%2BDaughter;" vertex="1" parent="1">
          <mxGeometry x="222.92000000000002" y="430" width="80" height="30" as="geometry" />
        </mxCell>
        <mxCell id="b6jJAoVoaWnXoVeAViK6-31" value="调度器" style="text;html=1;align=center;verticalAlign=middle;resizable=0;points=[];autosize=1;strokeColor=none;fillColor=none;fontFamily=Architects Daughter;fontSource=https%3A%2F%2Ffonts.googleapis.com%2Fcss%3Ffamily%3DArchitects%2BDaughter;" vertex="1" parent="1">
          <mxGeometry x="388" y="430" width="60" height="30" as="geometry" />
        </mxCell>
        <mxCell id="b6jJAoVoaWnXoVeAViK6-32" value="etcd" style="text;html=1;align=center;verticalAlign=middle;resizable=0;points=[];autosize=1;strokeColor=none;fillColor=none;fontFamily=Helvetica;" vertex="1" parent="1">
          <mxGeometry x="550" y="430" width="50" height="30" as="geometry" />
        </mxCell>
        <mxCell id="b6jJAoVoaWnXoVeAViK6-33" value="" style="rounded=0;whiteSpace=wrap;html=1;hachureGap=4;fontFamily=Architects Daughter;fontSource=https%3A%2F%2Ffonts.googleapis.com%2Fcss%3Ffamily%3DArchitects%2BDaughter;dashed=1;fillColor=#eeeeee;strokeColor=#36393d;" vertex="1" parent="1">
          <mxGeometry x="356" y="472" width="120" height="70" as="geometry" />
        </mxCell>
        <mxCell id="b6jJAoVoaWnXoVeAViK6-36" value="" style="outlineConnect=0;dashed=0;verticalLabelPosition=bottom;verticalAlign=top;align=center;html=1;shape=mxgraph.aws3.server_migration_service;fillColor=#5294CF;gradientColor=none;hachureGap=4;fontFamily=Architects Daughter;fontSource=https%3A%2F%2Ffonts.googleapis.com%2Fcss%3Ffamily%3DArchitects%2BDaughter;" vertex="1" parent="1">
          <mxGeometry x="394.5" y="472" width="50" height="50" as="geometry" />
        </mxCell>
        <mxCell id="b6jJAoVoaWnXoVeAViK6-37" value="&lt;font face=&quot;Helvetica&quot;&gt;API Server&lt;/font&gt;" style="text;html=1;align=center;verticalAlign=middle;resizable=0;points=[];autosize=1;strokeColor=none;fillColor=none;fontFamily=Architects Daughter;fontSource=https%3A%2F%2Ffonts.googleapis.com%2Fcss%3Ffamily%3DArchitects%2BDaughter;" vertex="1" parent="1">
          <mxGeometry x="379.5" y="522" width="80" height="30" as="geometry" />
        </mxCell>
        <mxCell id="b6jJAoVoaWnXoVeAViK6-39" value="&lt;font face=&quot;Helvetica&quot;&gt;kubelet&lt;/font&gt;" style="rounded=1;whiteSpace=wrap;html=1;hachureGap=4;fontFamily=Architects Daughter;fontSource=https%3A%2F%2Ffonts.googleapis.com%2Fcss%3Ffamily%3DArchitects%2BDaughter;fillColor=#fad7ac;strokeColor=#b46504;" vertex="1" parent="1">
          <mxGeometry x="120" y="610" width="130" height="50" as="geometry" />
        </mxCell>
        <mxCell id="b6jJAoVoaWnXoVeAViK6-41" value="&lt;font face=&quot;Helvetica&quot;&gt;kube-proxy&lt;/font&gt;" style="rounded=1;whiteSpace=wrap;html=1;hachureGap=4;fontFamily=Architects Daughter;fontSource=https%3A%2F%2Ffonts.googleapis.com%2Fcss%3Ffamily%3DArchitects%2BDaughter;fillColor=#fad7ac;strokeColor=#b46504;" vertex="1" parent="1">
          <mxGeometry x="268.34000000000003" y="610" width="130" height="50" as="geometry" />
        </mxCell>
        <mxCell id="b6jJAoVoaWnXoVeAViK6-43" value="" style="rounded=1;whiteSpace=wrap;html=1;hachureGap=4;fontFamily=Architects Daughter;fontSource=https%3A%2F%2Ffonts.googleapis.com%2Fcss%3Ffamily%3DArchitects%2BDaughter;fillColor=#ffcc99;strokeColor=#36393d;" vertex="1" parent="1">
          <mxGeometry x="120" y="960" width="280" height="50" as="geometry" />
        </mxCell>
        <mxCell id="b6jJAoVoaWnXoVeAViK6-44" value="" style="aspect=fixed;sketch=0;html=1;dashed=0;whitespace=wrap;verticalLabelPosition=bottom;verticalAlign=top;fillColor=#2875E2;strokeColor=#ffffff;points=[[0.005,0.63,0],[0.1,0.2,0],[0.9,0.2,0],[0.5,0,0],[0.995,0.63,0],[0.72,0.99,0],[0.5,1,0],[0.28,0.99,0]];shape=mxgraph.kubernetes.icon2;prIcon=node;hachureGap=4;jiggle=2;curveFitting=1;fontFamily=Architects Daughter;fontSource=https%3A%2F%2Ffonts.googleapis.com%2Fcss%3Ffamily%3DArchitects%2BDaughter;" vertex="1" parent="1">
          <mxGeometry x="146.33" y="965" width="41.67" height="40" as="geometry" />
        </mxCell>
        <mxCell id="b6jJAoVoaWnXoVeAViK6-46" value="" style="rounded=0;whiteSpace=wrap;html=1;hachureGap=4;fontFamily=Architects Daughter;fontSource=https%3A%2F%2Ffonts.googleapis.com%2Fcss%3Ffamily%3DArchitects%2BDaughter;" vertex="1" parent="1">
          <mxGeometry x="120" y="670" width="280" height="280" as="geometry" />
        </mxCell>
        <mxCell id="b6jJAoVoaWnXoVeAViK6-47" value="" style="rounded=1;whiteSpace=wrap;html=1;hachureGap=4;fontFamily=Architects Daughter;fontSource=https%3A%2F%2Ffonts.googleapis.com%2Fcss%3Ffamily%3DArchitects%2BDaughter;fillColor=#ffe6cc;strokeColor=#d79b00;" vertex="1" parent="1">
          <mxGeometry x="130" y="680" width="130" height="180" as="geometry" />
        </mxCell>
        <mxCell id="b6jJAoVoaWnXoVeAViK6-48" value="" style="rounded=1;whiteSpace=wrap;html=1;hachureGap=4;fontFamily=Architects Daughter;fontSource=https%3A%2F%2Ffonts.googleapis.com%2Fcss%3Ffamily%3DArchitects%2BDaughter;fillColor=#ffe6cc;strokeColor=#d79b00;" vertex="1" parent="1">
          <mxGeometry x="264.5" y="680" width="130" height="180" as="geometry" />
        </mxCell>
        <mxCell id="b6jJAoVoaWnXoVeAViK6-49" value="" style="rounded=1;whiteSpace=wrap;html=1;hachureGap=4;fontFamily=Architects Daughter;fontSource=https%3A%2F%2Ffonts.googleapis.com%2Fcss%3Ffamily%3DArchitects%2BDaughter;" vertex="1" parent="1">
          <mxGeometry x="138.25" y="730" width="112.75" height="50" as="geometry" />
        </mxCell>
        <mxCell id="b6jJAoVoaWnXoVeAViK6-50" value="" style="rounded=1;whiteSpace=wrap;html=1;hachureGap=4;fontFamily=Architects Daughter;fontSource=https%3A%2F%2Ffonts.googleapis.com%2Fcss%3Ffamily%3DArchitects%2BDaughter;" vertex="1" parent="1">
          <mxGeometry x="140" y="790" width="112.75" height="50" as="geometry" />
        </mxCell>
        <mxCell id="b6jJAoVoaWnXoVeAViK6-52" value="" style="rounded=1;whiteSpace=wrap;html=1;hachureGap=4;fontFamily=Architects Daughter;fontSource=https%3A%2F%2Ffonts.googleapis.com%2Fcss%3Ffamily%3DArchitects%2BDaughter;" vertex="1" parent="1">
          <mxGeometry x="276.97" y="760" width="112.75" height="50" as="geometry" />
        </mxCell>
        <mxCell id="b6jJAoVoaWnXoVeAViK6-53" value="&lt;font face=&quot;Helvetica&quot;&gt;Pod1&lt;/font&gt;" style="text;html=1;align=center;verticalAlign=middle;resizable=0;points=[];autosize=1;strokeColor=none;fillColor=none;fontFamily=Architects Daughter;fontSource=https%3A%2F%2Ffonts.googleapis.com%2Fcss%3Ffamily%3DArchitects%2BDaughter;" vertex="1" parent="1">
          <mxGeometry x="172.92000000000002" y="690" width="50" height="30" as="geometry" />
        </mxCell>
        <mxCell id="b6jJAoVoaWnXoVeAViK6-54" value="&lt;font face=&quot;Helvetica&quot;&gt;Pod2&lt;/font&gt;" style="text;html=1;align=center;verticalAlign=middle;resizable=0;points=[];autosize=1;strokeColor=none;fillColor=none;fontFamily=Architects Daughter;fontSource=https%3A%2F%2Ffonts.googleapis.com%2Fcss%3Ffamily%3DArchitects%2BDaughter;" vertex="1" parent="1">
          <mxGeometry x="308.35" y="690" width="50" height="30" as="geometry" />
        </mxCell>
        <mxCell id="b6jJAoVoaWnXoVeAViK6-55" value="" style="image;sketch=0;aspect=fixed;html=1;points=[];align=center;fontSize=12;image=img/lib/mscae/Docker.svg;hachureGap=4;jiggle=2;curveFitting=1;fontFamily=Architects Daughter;fontSource=https%3A%2F%2Ffonts.googleapis.com%2Fcss%3Ffamily%3DArchitects%2BDaughter;" vertex="1" parent="1">
          <mxGeometry x="138.25" y="890" width="60.98" height="50" as="geometry" />
        </mxCell>
        <mxCell id="b6jJAoVoaWnXoVeAViK6-56" value="" style="outlineConnect=0;dashed=0;verticalLabelPosition=bottom;verticalAlign=top;align=center;html=1;shape=mxgraph.aws3.android;fillColor=#FFD44F;gradientColor=none;hachureGap=4;fontFamily=Architects Daughter;fontSource=https%3A%2F%2Ffonts.googleapis.com%2Fcss%3Ffamily%3DArchitects%2BDaughter;" vertex="1" parent="1">
          <mxGeometry x="236.45999999999998" y="880" width="47.08" height="50" as="geometry" />
        </mxCell>
        <mxCell id="b6jJAoVoaWnXoVeAViK6-57" value="" style="verticalLabelPosition=bottom;sketch=0;aspect=fixed;html=1;verticalAlign=top;strokeColor=none;align=center;outlineConnect=0;shape=mxgraph.citrix.role_load_testing_controller;hachureGap=4;jiggle=2;curveFitting=1;fontFamily=Architects Daughter;fontSource=https%3A%2F%2Ffonts.googleapis.com%2Fcss%3Ffamily%3DArchitects%2BDaughter;" vertex="1" parent="1">
          <mxGeometry x="339" y="880" width="41.5" height="41.5" as="geometry" />
        </mxCell>
        <mxCell id="b6jJAoVoaWnXoVeAViK6-58" value="&lt;font face=&quot;Helvetica&quot;&gt;PodMan&lt;/font&gt;" style="text;html=1;align=center;verticalAlign=middle;resizable=0;points=[];autosize=1;strokeColor=none;fillColor=none;fontFamily=Architects Daughter;fontSource=https%3A%2F%2Ffonts.googleapis.com%2Fcss%3Ffamily%3DArchitects%2BDaughter;" vertex="1" parent="1">
          <mxGeometry x="225.00000000000003" y="921" width="70" height="30" as="geometry" />
        </mxCell>
        <mxCell id="b6jJAoVoaWnXoVeAViK6-59" value="&lt;font face=&quot;Helvetica&quot;&gt;Controller &lt;br&gt;Manager&lt;/font&gt;" style="text;html=1;align=center;verticalAlign=middle;resizable=0;points=[];autosize=1;strokeColor=none;fillColor=none;fontFamily=Architects Daughter;fontSource=https%3A%2F%2Ffonts.googleapis.com%2Fcss%3Ffamily%3DArchitects%2BDaughter;" vertex="1" parent="1">
          <mxGeometry x="319.75" y="916" width="80" height="40" as="geometry" />
        </mxCell>
        <mxCell id="b6jJAoVoaWnXoVeAViK6-60" value="&lt;font style=&quot;font-size: 18px;&quot; face=&quot;Helvetica&quot;&gt;工作节点1&lt;/font&gt;" style="text;html=1;align=center;verticalAlign=middle;resizable=0;points=[];autosize=1;strokeColor=none;fillColor=none;fontFamily=Architects Daughter;fontSource=https%3A%2F%2Ffonts.googleapis.com%2Fcss%3Ffamily%3DArchitects%2BDaughter;" vertex="1" parent="1">
          <mxGeometry x="225.00000000000003" y="965" width="110" height="40" as="geometry" />
        </mxCell>
        <mxCell id="b6jJAoVoaWnXoVeAViK6-61" value="" style="points=[];aspect=fixed;html=1;align=center;shadow=0;dashed=0;fillColor=#1ba1e2;strokeColor=#006EAF;shape=mxgraph.alibaba_cloud.ask_ack_container_service_for_kubernetes;hachureGap=4;fontFamily=Architects Daughter;fontSource=https%3A%2F%2Ffonts.googleapis.com%2Fcss%3Ffamily%3DArchitects%2BDaughter;fontColor=#ffffff;" vertex="1" parent="1">
          <mxGeometry x="149.74" y="735" width="34.85" height="40" as="geometry" />
        </mxCell>
        <mxCell id="b6jJAoVoaWnXoVeAViK6-62" value="" style="points=[];aspect=fixed;html=1;align=center;shadow=0;dashed=0;fillColor=#1ba1e2;strokeColor=#006EAF;shape=mxgraph.alibaba_cloud.ask_ack_container_service_for_kubernetes;hachureGap=4;fontFamily=Architects Daughter;fontSource=https%3A%2F%2Ffonts.googleapis.com%2Fcss%3Ffamily%3DArchitects%2BDaughter;fontColor=#ffffff;" vertex="1" parent="1">
          <mxGeometry x="146.33" y="795" width="34.85" height="40" as="geometry" />
        </mxCell>
        <mxCell id="b6jJAoVoaWnXoVeAViK6-63" value="" style="points=[];aspect=fixed;html=1;align=center;shadow=0;dashed=0;fillColor=#1ba1e2;strokeColor=#006EAF;shape=mxgraph.alibaba_cloud.ask_ack_container_service_for_kubernetes;hachureGap=4;fontFamily=Architects Daughter;fontSource=https%3A%2F%2Ffonts.googleapis.com%2Fcss%3Ffamily%3DArchitects%2BDaughter;fontColor=#ffffff;" vertex="1" parent="1">
          <mxGeometry x="285.15" y="765" width="34.85" height="40" as="geometry" />
        </mxCell>
        <mxCell id="b6jJAoVoaWnXoVeAViK6-64" value="&lt;font face=&quot;Helvetica&quot;&gt;容器1&lt;/font&gt;" style="text;html=1;align=center;verticalAlign=middle;resizable=0;points=[];autosize=1;strokeColor=none;fillColor=none;fontFamily=Architects Daughter;fontSource=https%3A%2F%2Ffonts.googleapis.com%2Fcss%3Ffamily%3DArchitects%2BDaughter;" vertex="1" parent="1">
          <mxGeometry x="192.51" y="740" width="50" height="30" as="geometry" />
        </mxCell>
        <mxCell id="b6jJAoVoaWnXoVeAViK6-65" value="&lt;font face=&quot;Helvetica&quot;&gt;容器2&lt;/font&gt;" style="text;html=1;align=center;verticalAlign=middle;resizable=0;points=[];autosize=1;strokeColor=none;fillColor=none;fontFamily=Architects Daughter;fontSource=https%3A%2F%2Ffonts.googleapis.com%2Fcss%3Ffamily%3DArchitects%2BDaughter;" vertex="1" parent="1">
          <mxGeometry x="192.51" y="800" width="50" height="30" as="geometry" />
        </mxCell>
        <mxCell id="b6jJAoVoaWnXoVeAViK6-66" value="&lt;font face=&quot;Helvetica&quot;&gt;容器1&lt;/font&gt;" style="text;html=1;align=center;verticalAlign=middle;resizable=0;points=[];autosize=1;strokeColor=none;fillColor=none;fontFamily=Architects Daughter;fontSource=https%3A%2F%2Ffonts.googleapis.com%2Fcss%3Ffamily%3DArchitects%2BDaughter;" vertex="1" parent="1">
          <mxGeometry x="329.5" y="770" width="50" height="30" as="geometry" />
        </mxCell>
        <mxCell id="b6jJAoVoaWnXoVeAViK6-67" value="" style="rounded=0;whiteSpace=wrap;html=1;hachureGap=4;fontFamily=Architects Daughter;fontSource=https%3A%2F%2Ffonts.googleapis.com%2Fcss%3Ffamily%3DArchitects%2BDaughter;textShadow=1;shadow=0;dashed=1;fillColor=#fff2cc;strokeColor=#d6b656;" vertex="1" parent="1">
          <mxGeometry x="437.5" y="600" width="300" height="420" as="geometry" />
        </mxCell>
        <mxCell id="b6jJAoVoaWnXoVeAViK6-68" value="&lt;font face=&quot;Helvetica&quot;&gt;kubelet&lt;/font&gt;" style="rounded=1;whiteSpace=wrap;html=1;hachureGap=4;fontFamily=Architects Daughter;fontSource=https%3A%2F%2Ffonts.googleapis.com%2Fcss%3Ffamily%3DArchitects%2BDaughter;fillColor=#fad7ac;strokeColor=#b46504;" vertex="1" parent="1">
          <mxGeometry x="447.5" y="610" width="130" height="50" as="geometry" />
        </mxCell>
        <mxCell id="b6jJAoVoaWnXoVeAViK6-69" value="&lt;font face=&quot;Helvetica&quot;&gt;kube-proxy&lt;/font&gt;" style="rounded=1;whiteSpace=wrap;html=1;hachureGap=4;fontFamily=Architects Daughter;fontSource=https%3A%2F%2Ffonts.googleapis.com%2Fcss%3Ffamily%3DArchitects%2BDaughter;fillColor=#fad7ac;strokeColor=#b46504;" vertex="1" parent="1">
          <mxGeometry x="595.84" y="610" width="130" height="50" as="geometry" />
        </mxCell>
        <mxCell id="b6jJAoVoaWnXoVeAViK6-70" value="" style="rounded=1;whiteSpace=wrap;html=1;hachureGap=4;fontFamily=Architects Daughter;fontSource=https%3A%2F%2Ffonts.googleapis.com%2Fcss%3Ffamily%3DArchitects%2BDaughter;fillColor=#ffcc99;strokeColor=#36393d;" vertex="1" parent="1">
          <mxGeometry x="447.5" y="960" width="280" height="50" as="geometry" />
        </mxCell>
        <mxCell id="b6jJAoVoaWnXoVeAViK6-71" value="" style="aspect=fixed;sketch=0;html=1;dashed=0;whitespace=wrap;verticalLabelPosition=bottom;verticalAlign=top;fillColor=#2875E2;strokeColor=#ffffff;points=[[0.005,0.63,0],[0.1,0.2,0],[0.9,0.2,0],[0.5,0,0],[0.995,0.63,0],[0.72,0.99,0],[0.5,1,0],[0.28,0.99,0]];shape=mxgraph.kubernetes.icon2;prIcon=node;hachureGap=4;jiggle=2;curveFitting=1;fontFamily=Architects Daughter;fontSource=https%3A%2F%2Ffonts.googleapis.com%2Fcss%3Ffamily%3DArchitects%2BDaughter;" vertex="1" parent="1">
          <mxGeometry x="473.83000000000004" y="965" width="41.67" height="40" as="geometry" />
        </mxCell>
        <mxCell id="b6jJAoVoaWnXoVeAViK6-72" value="" style="rounded=0;whiteSpace=wrap;html=1;hachureGap=4;fontFamily=Architects Daughter;fontSource=https%3A%2F%2Ffonts.googleapis.com%2Fcss%3Ffamily%3DArchitects%2BDaughter;" vertex="1" parent="1">
          <mxGeometry x="447.5" y="670" width="280" height="280" as="geometry" />
        </mxCell>
        <mxCell id="b6jJAoVoaWnXoVeAViK6-73" value="" style="rounded=1;whiteSpace=wrap;html=1;hachureGap=4;fontFamily=Architects Daughter;fontSource=https%3A%2F%2Ffonts.googleapis.com%2Fcss%3Ffamily%3DArchitects%2BDaughter;fillColor=#ffe6cc;strokeColor=#d79b00;" vertex="1" parent="1">
          <mxGeometry x="457.5" y="680" width="130" height="180" as="geometry" />
        </mxCell>
        <mxCell id="b6jJAoVoaWnXoVeAViK6-74" value="" style="rounded=1;whiteSpace=wrap;html=1;hachureGap=4;fontFamily=Architects Daughter;fontSource=https%3A%2F%2Ffonts.googleapis.com%2Fcss%3Ffamily%3DArchitects%2BDaughter;fillColor=#ffe6cc;strokeColor=#d79b00;" vertex="1" parent="1">
          <mxGeometry x="592" y="680" width="130" height="180" as="geometry" />
        </mxCell>
        <mxCell id="b6jJAoVoaWnXoVeAViK6-75" value="" style="rounded=1;whiteSpace=wrap;html=1;hachureGap=4;fontFamily=Architects Daughter;fontSource=https%3A%2F%2Ffonts.googleapis.com%2Fcss%3Ffamily%3DArchitects%2BDaughter;" vertex="1" parent="1">
          <mxGeometry x="466.13" y="755" width="112.75" height="50" as="geometry" />
        </mxCell>
        <mxCell id="b6jJAoVoaWnXoVeAViK6-76" value="" style="rounded=1;whiteSpace=wrap;html=1;hachureGap=4;fontFamily=Architects Daughter;fontSource=https%3A%2F%2Ffonts.googleapis.com%2Fcss%3Ffamily%3DArchitects%2BDaughter;" vertex="1" parent="1">
          <mxGeometry x="604.47" y="790" width="112.75" height="50" as="geometry" />
        </mxCell>
        <mxCell id="b6jJAoVoaWnXoVeAViK6-77" value="" style="rounded=1;whiteSpace=wrap;html=1;hachureGap=4;fontFamily=Architects Daughter;fontSource=https%3A%2F%2Ffonts.googleapis.com%2Fcss%3Ffamily%3DArchitects%2BDaughter;" vertex="1" parent="1">
          <mxGeometry x="604.47" y="730" width="112.75" height="50" as="geometry" />
        </mxCell>
        <mxCell id="b6jJAoVoaWnXoVeAViK6-78" value="&lt;font face=&quot;Helvetica&quot;&gt;Pod1&lt;/font&gt;" style="text;html=1;align=center;verticalAlign=middle;resizable=0;points=[];autosize=1;strokeColor=none;fillColor=none;fontFamily=Architects Daughter;fontSource=https%3A%2F%2Ffonts.googleapis.com%2Fcss%3Ffamily%3DArchitects%2BDaughter;" vertex="1" parent="1">
          <mxGeometry x="500.42" y="690" width="50" height="30" as="geometry" />
        </mxCell>
        <mxCell id="b6jJAoVoaWnXoVeAViK6-79" value="&lt;font face=&quot;Helvetica&quot;&gt;Pod2&lt;/font&gt;" style="text;html=1;align=center;verticalAlign=middle;resizable=0;points=[];autosize=1;strokeColor=none;fillColor=none;fontFamily=Architects Daughter;fontSource=https%3A%2F%2Ffonts.googleapis.com%2Fcss%3Ffamily%3DArchitects%2BDaughter;" vertex="1" parent="1">
          <mxGeometry x="635.85" y="690" width="50" height="30" as="geometry" />
        </mxCell>
        <mxCell id="b6jJAoVoaWnXoVeAViK6-80" value="" style="image;sketch=0;aspect=fixed;html=1;points=[];align=center;fontSize=12;image=img/lib/mscae/Docker.svg;hachureGap=4;jiggle=2;curveFitting=1;fontFamily=Architects Daughter;fontSource=https%3A%2F%2Ffonts.googleapis.com%2Fcss%3Ffamily%3DArchitects%2BDaughter;" vertex="1" parent="1">
          <mxGeometry x="465.75" y="890" width="60.98" height="50" as="geometry" />
        </mxCell>
        <mxCell id="b6jJAoVoaWnXoVeAViK6-81" value="" style="outlineConnect=0;dashed=0;verticalLabelPosition=bottom;verticalAlign=top;align=center;html=1;shape=mxgraph.aws3.android;fillColor=#FFD44F;gradientColor=none;hachureGap=4;fontFamily=Architects Daughter;fontSource=https%3A%2F%2Ffonts.googleapis.com%2Fcss%3Ffamily%3DArchitects%2BDaughter;" vertex="1" parent="1">
          <mxGeometry x="563.96" y="880" width="47.08" height="50" as="geometry" />
        </mxCell>
        <mxCell id="b6jJAoVoaWnXoVeAViK6-82" value="" style="verticalLabelPosition=bottom;sketch=0;aspect=fixed;html=1;verticalAlign=top;strokeColor=none;align=center;outlineConnect=0;shape=mxgraph.citrix.role_load_testing_controller;hachureGap=4;jiggle=2;curveFitting=1;fontFamily=Architects Daughter;fontSource=https%3A%2F%2Ffonts.googleapis.com%2Fcss%3Ffamily%3DArchitects%2BDaughter;" vertex="1" parent="1">
          <mxGeometry x="666.5" y="880" width="41.5" height="41.5" as="geometry" />
        </mxCell>
        <mxCell id="b6jJAoVoaWnXoVeAViK6-83" value="&lt;font face=&quot;Helvetica&quot;&gt;PodMan&lt;/font&gt;" style="text;html=1;align=center;verticalAlign=middle;resizable=0;points=[];autosize=1;strokeColor=none;fillColor=none;fontFamily=Architects Daughter;fontSource=https%3A%2F%2Ffonts.googleapis.com%2Fcss%3Ffamily%3DArchitects%2BDaughter;" vertex="1" parent="1">
          <mxGeometry x="552.5" y="921" width="70" height="30" as="geometry" />
        </mxCell>
        <mxCell id="b6jJAoVoaWnXoVeAViK6-84" value="&lt;font face=&quot;Helvetica&quot;&gt;Controller &lt;br&gt;Manager&lt;/font&gt;" style="text;html=1;align=center;verticalAlign=middle;resizable=0;points=[];autosize=1;strokeColor=none;fillColor=none;fontFamily=Architects Daughter;fontSource=https%3A%2F%2Ffonts.googleapis.com%2Fcss%3Ffamily%3DArchitects%2BDaughter;" vertex="1" parent="1">
          <mxGeometry x="647.25" y="916" width="80" height="40" as="geometry" />
        </mxCell>
        <mxCell id="b6jJAoVoaWnXoVeAViK6-85" value="&lt;font style=&quot;font-size: 18px;&quot; face=&quot;Helvetica&quot;&gt;工作节点2&lt;/font&gt;" style="text;html=1;align=center;verticalAlign=middle;resizable=0;points=[];autosize=1;strokeColor=none;fillColor=none;fontFamily=Architects Daughter;fontSource=https%3A%2F%2Ffonts.googleapis.com%2Fcss%3Ffamily%3DArchitects%2BDaughter;" vertex="1" parent="1">
          <mxGeometry x="552.5" y="965" width="110" height="40" as="geometry" />
        </mxCell>
        <mxCell id="b6jJAoVoaWnXoVeAViK6-86" value="" style="points=[];aspect=fixed;html=1;align=center;shadow=0;dashed=0;fillColor=#1ba1e2;strokeColor=#006EAF;shape=mxgraph.alibaba_cloud.ask_ack_container_service_for_kubernetes;hachureGap=4;fontFamily=Architects Daughter;fontSource=https%3A%2F%2Ffonts.googleapis.com%2Fcss%3Ffamily%3DArchitects%2BDaughter;fontColor=#ffffff;" vertex="1" parent="1">
          <mxGeometry x="477.62" y="760" width="34.85" height="40" as="geometry" />
        </mxCell>
        <mxCell id="b6jJAoVoaWnXoVeAViK6-87" value="" style="points=[];aspect=fixed;html=1;align=center;shadow=0;dashed=0;fillColor=#1ba1e2;strokeColor=#006EAF;shape=mxgraph.alibaba_cloud.ask_ack_container_service_for_kubernetes;hachureGap=4;fontFamily=Architects Daughter;fontSource=https%3A%2F%2Ffonts.googleapis.com%2Fcss%3Ffamily%3DArchitects%2BDaughter;fontColor=#ffffff;" vertex="1" parent="1">
          <mxGeometry x="610.8000000000001" y="795" width="34.85" height="40" as="geometry" />
        </mxCell>
        <mxCell id="b6jJAoVoaWnXoVeAViK6-88" value="" style="points=[];aspect=fixed;html=1;align=center;shadow=0;dashed=0;fillColor=#1ba1e2;strokeColor=#006EAF;shape=mxgraph.alibaba_cloud.ask_ack_container_service_for_kubernetes;hachureGap=4;fontFamily=Architects Daughter;fontSource=https%3A%2F%2Ffonts.googleapis.com%2Fcss%3Ffamily%3DArchitects%2BDaughter;fontColor=#ffffff;" vertex="1" parent="1">
          <mxGeometry x="612.65" y="735" width="34.85" height="40" as="geometry" />
        </mxCell>
        <mxCell id="b6jJAoVoaWnXoVeAViK6-89" value="&lt;font face=&quot;Helvetica&quot;&gt;容器1&lt;/font&gt;" style="text;html=1;align=center;verticalAlign=middle;resizable=0;points=[];autosize=1;strokeColor=none;fillColor=none;fontFamily=Architects Daughter;fontSource=https%3A%2F%2Ffonts.googleapis.com%2Fcss%3Ffamily%3DArchitects%2BDaughter;" vertex="1" parent="1">
          <mxGeometry x="520.39" y="765" width="50" height="30" as="geometry" />
        </mxCell>
        <mxCell id="b6jJAoVoaWnXoVeAViK6-90" value="&lt;font face=&quot;Helvetica&quot;&gt;容器2&lt;/font&gt;" style="text;html=1;align=center;verticalAlign=middle;resizable=0;points=[];autosize=1;strokeColor=none;fillColor=none;fontFamily=Architects Daughter;fontSource=https%3A%2F%2Ffonts.googleapis.com%2Fcss%3Ffamily%3DArchitects%2BDaughter;" vertex="1" parent="1">
          <mxGeometry x="656.98" y="800" width="50" height="30" as="geometry" />
        </mxCell>
        <mxCell id="b6jJAoVoaWnXoVeAViK6-91" value="&lt;font face=&quot;Helvetica&quot;&gt;容器1&lt;/font&gt;" style="text;html=1;align=center;verticalAlign=middle;resizable=0;points=[];autosize=1;strokeColor=none;fillColor=none;fontFamily=Architects Daughter;fontSource=https%3A%2F%2Ffonts.googleapis.com%2Fcss%3Ffamily%3DArchitects%2BDaughter;" vertex="1" parent="1">
          <mxGeometry x="657" y="740" width="50" height="30" as="geometry" />
        </mxCell>
        <mxCell id="b6jJAoVoaWnXoVeAViK6-96" value="" style="endArrow=classic;startArrow=classic;html=1;rounded=0;hachureGap=4;fontFamily=Architects Daughter;fontSource=https%3A%2F%2Ffonts.googleapis.com%2Fcss%3Ffamily%3DArchitects%2BDaughter;entryX=0;entryY=0.75;entryDx=0;entryDy=0;exitX=0.5;exitY=0;exitDx=0;exitDy=0;flowAnimation=0;" edge="1" parent="1" source="b6jJAoVoaWnXoVeAViK6-39" target="b6jJAoVoaWnXoVeAViK6-33">
          <mxGeometry width="50" height="50" relative="1" as="geometry">
            <mxPoint x="240" y="580" as="sourcePoint" />
            <mxPoint x="290" y="530" as="targetPoint" />
          </mxGeometry>
        </mxCell>
        <mxCell id="b6jJAoVoaWnXoVeAViK6-97" value="" style="endArrow=classic;startArrow=classic;html=1;rounded=0;hachureGap=4;fontFamily=Architects Daughter;fontSource=https%3A%2F%2Ffonts.googleapis.com%2Fcss%3Ffamily%3DArchitects%2BDaughter;entryX=0.75;entryY=0;entryDx=0;entryDy=0;exitX=1;exitY=0.75;exitDx=0;exitDy=0;flowAnimation=0;" edge="1" parent="1" source="b6jJAoVoaWnXoVeAViK6-33" target="b6jJAoVoaWnXoVeAViK6-68">
          <mxGeometry width="50" height="50" relative="1" as="geometry">
            <mxPoint x="495.5" y="545" as="sourcePoint" />
            <mxPoint x="666.5" y="460" as="targetPoint" />
          </mxGeometry>
        </mxCell>
        <mxCell id="b6jJAoVoaWnXoVeAViK6-99" value="" style="endArrow=classic;html=1;rounded=0;hachureGap=4;fontFamily=Architects Daughter;fontSource=https%3A%2F%2Ffonts.googleapis.com%2Fcss%3Ffamily%3DArchitects%2BDaughter;entryX=1;entryY=0.5;entryDx=0;entryDy=0;exitX=0.5;exitY=1;exitDx=0;exitDy=0;flowAnimation=1;" edge="1" parent="1" source="b6jJAoVoaWnXoVeAViK6-26" target="b6jJAoVoaWnXoVeAViK6-33">
          <mxGeometry width="50" height="50" relative="1" as="geometry">
            <mxPoint x="550" y="530" as="sourcePoint" />
            <mxPoint x="600" y="480" as="targetPoint" />
          </mxGeometry>
        </mxCell>
        <mxCell id="b6jJAoVoaWnXoVeAViK6-100" value="" style="endArrow=classic;html=1;rounded=0;hachureGap=4;fontFamily=Architects Daughter;fontSource=https%3A%2F%2Ffonts.googleapis.com%2Fcss%3Ffamily%3DArchitects%2BDaughter;entryX=0;entryY=0.25;entryDx=0;entryDy=0;exitX=0.5;exitY=1;exitDx=0;exitDy=0;flowAnimation=1;" edge="1" parent="1" source="b6jJAoVoaWnXoVeAViK6-24" target="b6jJAoVoaWnXoVeAViK6-33">
          <mxGeometry width="50" height="50" relative="1" as="geometry">
            <mxPoint x="309.92" y="472" as="sourcePoint" />
            <mxPoint x="215.92000000000002" y="529" as="targetPoint" />
          </mxGeometry>
        </mxCell>
        <mxCell id="b6jJAoVoaWnXoVeAViK6-101" value="" style="endArrow=classic;html=1;rounded=0;hachureGap=4;fontFamily=Architects Daughter;fontSource=https%3A%2F%2Ffonts.googleapis.com%2Fcss%3Ffamily%3DArchitects%2BDaughter;entryX=0.5;entryY=0;entryDx=0;entryDy=0;exitX=0.5;exitY=1;exitDx=0;exitDy=0;flowAnimation=1;" edge="1" parent="1" source="b6jJAoVoaWnXoVeAViK6-25" target="b6jJAoVoaWnXoVeAViK6-33">
          <mxGeometry width="50" height="50" relative="1" as="geometry">
            <mxPoint x="250" y="472" as="sourcePoint" />
            <mxPoint x="346" y="512" as="targetPoint" />
          </mxGeometry>
        </mxCell>
        <mxCell id="b6jJAoVoaWnXoVeAViK6-102" value="&lt;font face=&quot;Helvetica&quot;&gt;JavaPub技术团队&lt;/font&gt;" style="text;html=1;align=center;verticalAlign=middle;whiteSpace=wrap;rounded=0;fontFamily=Architects Daughter;fontSource=https%3A%2F%2Ffonts.googleapis.com%2Fcss%3Ffamily%3DArchitects%2BDaughter;" vertex="1" parent="1">
          <mxGeometry x="70" y="580" width="180" height="30" as="geometry" />
        </mxCell>
      </root>
    </mxGraphModel>
  </diagram>
</mxfile>
